PathFileType	4	(X/Y/Z)	c:/Users/goper/Files/vsCode/490R/osim_files/C05/C05_SSWS_02.trc
DataRate	CameraRate	NumFrames	NumMarkers	Units                	OrigDataRate	OrigDataStartFrame	OrigNumFrames
250.00	250.00	5	36	mm	250.0	1962	3138
                Frame#	Time	LPSIS			LASIS			LTH1			LTH2			LTH3			LTH4			LLFE			LMFE			LSH1			LSH2			LSH3			LSH4			LLMAL			LMMAL			LCAL			LMTP5			LTOE			LMTP1			RPSIS			RASIS			RTH1			RTH2			RTH3			RTH4			RLFE			RMFE			RSH1			RSH2			RSH3			RSH4			RLMAL			RMMAL			RCAL			RMTP1			RTOE			RMTP5		
		X1	Y1	Z1	X2	Y2	Z2	X3	Y3	Z3	X4	Y4	Z4	X5	Y5	Z5	X6	Y6	Z6	X7	Y7	Z7	X8	Y8	Z8	X9	Y9	Z9	X10	Y10	Z10	X11	Y11	Z11	X12	Y12	Z12	X13	Y13	Z13	X14	Y14	Z14	X15	Y15	Z15	X16	Y16	Z16	X17	Y17	Z17	X18	Y18	Z18	X19	Y19	Z19	X20	Y20	Z20	X21	Y21	Z21	X22	Y22	Z22	X23	Y23	Z23	X24	Y24	Z24	X25	Y25	Z25	X26	Y26	Z26	X27	Y27	Z27	X28	Y28	Z28	X29	Y29	Z29	X30	Y30	Z30	X31	Y31	Z31	X32	Y32	Z32	X33	Y33	Z33	X34	Y34	Z34	X35	Y35	Z35	X36	Y36	Z36

1962	7.84400	-1778.21985	1033.74744	253.15419	-1973.25940	992.92371	322.39178	-1941.83948	676.69373	358.41040	-1944.05383	615.23376	350.54947	-1866.00354	668.55603	353.66681	-1878.83850	607.04761	345.91074	-1921.70691	505.62497	337.60962	-1935.49341	494.62784	217.36728	-1745.75293	450.74405	341.51050	-1714.74646	421.69730	339.85867	-1783.17883	400.27527	357.50504	-1745.10522	378.66608	351.99869	-1548.62659	268.18692	321.87289	-1578.22913	249.88080	239.25955	-1499.75549	307.54373	266.32950	-1547.45325	113.37241	343.55286	-1594.82788	96.19965	283.75922	-1576.42786	101.59852	234.80008	-1788.71216	1046.82971	144.51131	-1985.30115	1013.96655	93.17104	-2029.05151	694.65088	52.33761	-2045.51746	636.04352	67.33898	-1958.97473	666.45856	48.52304	-1986.66089	612.10730	66.42798	0.00000	0.00000	0.00000	-2050.48486	541.33679	93.18479	-1974.42175	380.98108	74.51028	-1978.55396	333.40561	81.11839	-2034.63843	378.46863	81.55471	-2030.46240	332.10498	87.93716	-1983.27686	102.34466	129.33600	-2004.49463	116.15636	213.65504	-1920.22046	74.32972	177.83018	-2138.00635	49.67205	205.48740	-2157.78979	74.03651	158.03520	-2109.71899	44.61562	94.01884
1963	7.84800	-1782.51208	1034.19556	252.64090	-1977.72034	993.63995	322.02182	-1949.13586	677.69006	358.78052	-1952.30420	616.21985	350.65695	-1874.22363	668.99194	353.61749	-1887.25525	607.19873	346.25156	-1931.37683	506.55106	337.76599	-1942.74146	495.83728	216.08105	-1755.64856	452.38135	341.40137	-1724.70837	423.32913	339.76608	-1793.02063	401.72040	357.44345	-1754.83704	380.24582	351.85876	-1557.92151	270.43939	321.49960	-1587.91516	251.78375	239.09354	-1508.84961	309.03128	265.49930	-1558.11523	116.17580	344.22372	-1605.54541	98.67136	285.01700	-1587.40344	103.51064	235.95262	-1793.18091	1047.48083	144.07503	-1989.89734	1014.68127	92.82577	-2032.64417	694.90057	51.95713	-2048.62329	636.01965	67.14434	-1962.24829	666.74976	47.75237	-1989.70435	612.26276	65.85835	0.00000	0.00000	0.00000	-2052.69653	541.13733	92.77734	-1976.28967	380.90988	73.77385	-1980.26965	333.28491	80.59266	-2036.41577	378.09042	81.29203	-2032.09790	331.88092	87.79743	-1983.39258	102.39277	129.30952	-2004.61438	116.20110	213.39914	-1920.33423	74.38650	177.87280	-2138.06030	49.61932	205.48708	-2157.87573	73.86316	157.99759	-2109.74536	44.52705	93.94627
1964	7.85200	-1786.94934	1034.67090	252.17747	-1982.25720	994.51508	321.70956	-1956.86401	678.82709	358.84799	-1960.62317	617.33893	350.84674	-1881.76880	668.82629	353.42685	-1895.60291	608.00342	345.66788	-1940.96191	507.61081	337.91769	-1954.42932	496.09079	216.49048	-1765.66211	453.97495	341.23746	-1734.61060	424.94708	339.56320	-1802.81970	403.37274	357.35452	-1764.66992	381.90808	351.75842	-1567.37866	272.54752	321.06598	-1597.69666	253.54399	238.94679	-1518.13562	310.39700	264.68869	-1568.47998	118.36658	345.49188	-1616.37708	100.83990	286.30780	-1598.81006	105.08704	237.46674	-1797.56238	1048.20227	143.60796	-1994.31873	1015.36066	92.48503	-2036.36890	695.36761	51.63860	-2051.73145	635.97821	66.82444	-1965.52173	666.99609	47.01770	-1992.62781	612.48792	65.32054	0.00000	0.00000	0.00000	-2054.80615	540.90692	92.33404	-1978.22534	380.76309	73.09975	-1981.86316	333.21201	80.12614	-2038.19470	377.80887	81.08109	-2033.56531	331.53629	87.72150	-1983.52271	102.45985	129.26724	-2004.78613	116.25785	213.48828	-1920.52539	74.27614	178.07094	-2138.14966	49.63223	205.47527	-2157.98071	73.71867	157.93221	-2109.76440	44.45990	93.88602
1965	7.85600	-1791.30237	1035.25195	251.70801	-1986.84155	995.40649	321.35510	-1964.94507	680.05054	358.64481	-1968.95020	618.66327	351.07169	-1889.35217	669.72821	353.07651	-1903.93799	608.64740	345.52734	-1950.69727	508.80353	338.02145	-1964.11987	497.17389	216.36813	-1775.59363	455.63052	340.92325	-1744.43762	426.53629	339.22647	-1812.76074	404.89682	357.21756	-1774.53564	383.62076	351.61871	-1577.14941	274.46164	320.64581	-1607.75623	254.99942	238.85835	-1527.64087	311.51767	263.82935	-1579.24902	120.68248	346.49402	-1627.41956	102.93153	287.60422	-1609.43518	106.64266	238.26367	-1802.05664	1048.83325	143.22943	-1998.77979	1016.09436	92.12019	-2037.43542	693.76941	51.48086	-2054.68970	636.02875	66.59728	-1969.02563	666.92303	46.22662	-1995.61951	612.57001	64.72855	0.00000	0.00000	0.00000	-2056.90845	540.62634	91.87112	-1979.95959	380.67178	72.51892	-1983.43823	333.09143	79.67303	-2039.88354	377.50137	80.90628	-2035.15088	331.32654	87.61077	-1983.64172	102.53027	129.21658	-2005.02417	116.40620	213.42349	-1920.57336	74.39883	178.02687	-2138.24292	49.63340	205.45369	-2158.10425	73.59759	157.86287	-2109.79395	44.39352	93.83804
1966	7.86000	-1795.73438	1035.76404	251.25700	-1991.24707	996.28314	321.01001	-1972.56311	681.31091	358.78891	-1977.12585	620.02936	351.20999	-1897.56628	670.37268	353.07095	-1912.39893	609.28772	345.51453	-1960.21509	510.08279	338.18356	-1973.84631	498.37396	216.21278	-1785.62854	457.20511	340.61206	-1754.17419	428.08179	338.73236	-1822.62756	406.53079	357.03339	-1784.43042	385.16287	351.37579	-1587.00574	276.16684	320.25339	-1617.74670	256.27902	238.65814	-1537.27686	312.44727	263.00653	-1590.17004	122.84223	347.52551	-1638.57764	104.84613	288.89581	-1621.02014	107.85762	239.90228	-1806.38525	1049.46790	142.83678	-2003.24438	1016.79883	91.82164	-2040.57300	693.77747	51.10476	-2057.54492	635.93817	66.30446	-1972.17212	667.11176	45.60138	-1998.40625	612.78174	64.18453	0.00000	0.00000	0.00000	-2058.94824	540.33423	91.34200	-1981.59180	380.63455	71.91416	-1984.87598	333.00830	79.26337	-2041.45093	377.21021	80.69270	-2036.48767	331.01309	87.56773	-1983.74756	102.60840	129.16808	-2005.21033	116.53062	213.31908	-1920.64282	74.51089	177.99298	-2138.28906	49.63136	205.41298	-2158.17212	73.47769	157.74715	-2109.78540	44.32566	93.77784
